<svg width="48" height="48" viewBox="0 0 48 48" fill="none" xmlns="http://www.w3.org/2000/svg">
<g clip-path="url(#clip0_137997_5810)">
<path d="M48 0.00110626H0V48H48V0.00110626Z" fill="#444DF2"/>
<path d="M28.2383 39.9074C27.9052 42.5809 27.5855 45.2977 27.479 48H5.07544C5.37016 47.5479 5.7196 47.0698 6.11128 46.5485C8.03416 43.994 9.59224 41.1659 10.7318 38.1785C11.301 36.6857 11.7666 35.1517 12.119 33.5927C12.3647 32.5108 13.1846 30.1617 12.8169 29.0952C13.0271 29.7057 13.3238 30.2702 13.6876 30.7914C14.8386 32.4397 16.6636 33.6406 18.5606 34.399C21.0575 35.3964 23.7513 35.7814 26.3356 36.5235C26.8761 36.679 27.4386 36.8671 27.8159 37.2847C28.4284 37.9644 28.3516 38.9992 28.2383 39.9074Z" fill="#444DF2"/>
<path d="M28.2383 39.9074C27.9052 42.5809 27.5855 45.2977 27.479 48H5.07544C5.37016 47.5479 5.7196 47.0698 6.11128 46.5485C8.03416 43.994 9.59224 41.1659 10.7318 38.1785C11.301 36.6857 11.7666 35.1517 12.119 33.5927C12.3647 32.5108 13.1846 30.1617 12.8169 29.0952C13.0271 29.7057 13.3238 30.2702 13.6876 30.7914C14.8386 32.4397 16.6636 33.6406 18.5606 34.399C21.0575 35.3964 23.7513 35.7814 26.3356 36.5235C26.8761 36.679 27.4386 36.8671 27.8159 37.2847C28.4284 37.9644 28.3516 38.9992 28.2383 39.9074Z" fill="#EAAA7F"/>
<path d="M10.1636 17.4756C10.1329 15.3752 10.3556 13.2478 11.3261 11.3615C12.9908 8.12348 16.6426 6.11617 20.353 5.41346C24.0644 4.71076 27.8804 5.12163 31.6177 5.56322C33.8631 5.82913 37.2116 6.23424 38.4164 8.29148C40.009 11.0082 40.1636 14.9297 40.4804 17.97C40.7972 21.0102 41.1841 24.0428 41.4874 27.085C41.7533 29.7527 41.6506 32.5847 40.5716 35.1209C39.2823 38.1525 36.4599 40.6178 33.1133 41.4328C28.3527 42.5915 21.8516 41.0834 18.7882 37.471C16.5389 34.8185 14.018 31.9271 12.529 28.8148C10.9978 25.6143 10.3748 22.07 10.2001 18.5623C10.1818 18.2013 10.1684 17.8385 10.1636 17.4756Z" fill="#F7C9A4"/>
<path d="M13.585 30.4583C12.9024 30.5351 12.2323 30.4698 11.6189 30.1511C10.8682 29.7614 10.345 29.052 9.864 28.3569C7.16928 24.4681 5.11008 19.7901 4.68576 15.0344C4.52352 13.2114 4.9488 11.2501 6.22944 9.94168C6.55584 9.60856 6.93408 9.31961 7.19328 8.93178C7.53504 8.42107 7.6368 7.79229 7.85568 7.21726C8.57664 5.31938 10.487 3.97925 12.3283 3.12583C20.8003 -0.800477 31.2442 -1.3899 39.2294 3.45127C39.9072 3.86214 40.5773 4.51396 41.0458 5.15235C43.0138 7.83548 41.0947 11.5784 38.6419 13.053C35.1523 15.1515 31.5197 16.0193 27.4464 15.5489C24.0269 15.1534 20.7456 14.011 17.496 12.8754C18.7661 15.9809 18.7181 19.4877 17.545 22.6115C17.0006 24.062 17.135 24.853 17.1206 26.365C17.112 27.2453 17.1466 29.3179 16.1107 29.7287C15.3072 30.0475 14.4365 30.3633 13.585 30.4583Z" fill="#1B1464"/>
<path d="M14.5325 21.1859C17.1053 22.9705 17.8982 27.4229 17.9635 30.3393C17.9664 30.4756 17.9683 30.6177 18.0288 30.7406C18.2237 31.1428 15.4771 31.2829 15.2544 31.2849C14.1706 31.2954 13.0858 31.1812 12.0278 30.9431C10.8797 30.6849 10.5302 30.3825 9.84768 29.3947C9.27456 28.5652 8.82624 27.6456 8.58432 26.6655C8.19168 25.0748 8.37696 23.3084 9.27264 21.9376C9.56928 21.4835 9.94464 21.0726 10.4074 20.7904C11.6554 20.031 13.3315 20.3526 14.5325 21.1859Z" fill="#F7C9A4"/>
<path d="M16.5197 30.5322C14.3165 32.0308 11.5709 31.1457 10.7923 30.4862C9.65854 29.5252 8.9347 28.092 8.58334 26.6664C8.1907 25.0757 8.37598 23.3094 9.27166 21.9385C9.5683 21.4844 9.94366 21.0736 10.4064 20.7913C11.6544 20.031 13.3305 20.3536 14.5325 21.1859C15.8448 22.096 16.7433 23.5791 16.943 25.164" fill="#F7C9A4"/>
<path d="M30.4586 25.1432C31.1649 25.0968 31.6743 24.0959 31.5963 22.9077C31.5183 21.7194 30.8824 20.7937 30.1761 20.84C29.4698 20.8864 28.9604 21.8873 29.0384 23.0755C29.1164 24.2638 29.7523 25.1895 30.4586 25.1432Z" fill="#1B1464"/>
<path d="M37.9583 22.841C38.6647 22.7946 39.174 21.7937 39.096 20.6055C39.018 19.4172 38.3822 18.4915 37.6759 18.5378C36.9696 18.5842 36.4602 19.5851 36.5382 20.7733C36.6162 21.9616 37.252 22.8873 37.9583 22.841Z" fill="#1B1464"/>
<path d="M35.061 31.2954C33.9878 31.2954 32.9145 30.9777 32.207 30.7137C31.9564 30.6196 31.8287 30.3412 31.9228 30.0897C32.0169 29.8391 32.2962 29.7115 32.5468 29.8055C33.3609 30.1099 35.3846 30.7319 36.5836 29.939C36.6796 29.8756 36.7094 29.8411 36.718 29.8286C36.7209 29.7825 36.6844 29.6606 36.6681 29.6068C36.3628 28.5921 35.9769 27.5832 35.6044 26.6079C35.0303 25.1055 34.437 23.5513 34.102 21.9059C34.0482 21.6438 34.2182 21.3875 34.4802 21.3337C34.7423 21.28 34.9986 21.4499 35.0524 21.712C35.3721 23.2796 35.951 24.7954 36.5106 26.2623C36.8898 27.2539 37.2815 28.2801 37.5974 29.3275C37.653 29.5108 37.7452 29.8171 37.6386 30.1358C37.5359 30.4439 37.293 30.6321 37.1193 30.7473C36.5078 31.1505 35.7849 31.2954 35.061 31.2954Z" fill="#1B1464"/>
<path d="M25.3238 22.8188C25.0895 22.8188 24.8831 22.6479 24.8457 22.4089C24.5203 20.3325 25.8067 18.1264 27.7747 17.3882C28.0252 17.2941 28.3046 17.4209 28.3987 17.6714C28.4927 17.922 28.366 18.2013 28.1155 18.2954C26.5622 18.8781 25.5465 20.6195 25.8038 22.2582C25.8451 22.5222 25.6646 22.7708 25.3996 22.8121C25.3737 22.8169 25.3487 22.8188 25.3238 22.8188Z" fill="#1B1464"/>
<path d="M39.3245 17.0446C39.1287 17.0446 38.9444 16.9246 38.8714 16.7307C38.7629 16.4417 38.5114 16.2008 38.1831 16.0692C37.8548 15.9377 37.5063 15.9387 37.2279 16.0712C36.9869 16.1873 36.697 16.0846 36.5818 15.8436C36.4656 15.6027 36.5684 15.3128 36.8093 15.1966C37.3316 14.946 37.9642 14.9364 38.544 15.1688C39.1239 15.4011 39.5741 15.8456 39.7786 16.388C39.8727 16.6385 39.7469 16.9179 39.4964 17.0129C39.4397 17.034 39.3812 17.0446 39.3245 17.0446Z" fill="#1B1464"/>
<path d="M33.0922 36.3056C31.8663 36.3056 30.6394 35.959 29.6305 35.2707C29.4097 35.12 29.3521 34.8186 29.5037 34.5968C29.6545 34.376 29.9559 34.3184 30.1777 34.4691C31.8097 35.5827 34.1233 35.6336 35.8033 34.591C36.0308 34.4499 36.3293 34.52 36.4705 34.7475C36.6116 34.975 36.5415 35.2736 36.314 35.4147C35.3559 36.0099 34.2241 36.3056 33.0922 36.3056Z" fill="#1B1464"/>
<path d="M27.6239 42.5233C27.5942 42.5233 27.5644 42.5205 27.5337 42.5147C23.8233 41.8168 20.1004 39.5503 17.0524 36.1328C16.8739 35.9331 16.8921 35.6269 17.0918 35.4483C17.2915 35.2697 17.5977 35.288 17.7763 35.4877C20.6831 38.7458 24.2121 40.9038 27.7132 41.5614C27.9763 41.6114 28.1491 41.8638 28.1001 42.1269C28.0559 42.3611 27.8524 42.5233 27.6239 42.5233Z" fill="#1B1464"/>
<path d="M11.8925 27.9768C11.6438 27.9768 11.4317 27.7867 11.4106 27.5342C11.3395 26.7125 11.6602 26.2191 11.9424 25.9493C12.456 25.4588 13.2058 25.3301 13.7501 25.31C13.6685 25.1247 13.5494 24.9701 13.391 24.8444C12.6614 24.2617 11.3606 24.4441 11.3482 24.446C11.0842 24.4844 10.8374 24.302 10.7981 24.038C10.7587 23.774 10.9402 23.5273 11.2042 23.487C11.2742 23.4764 12.9293 23.2374 13.993 24.0831C14.5027 24.4882 14.7898 25.0594 14.8445 25.7794C14.856 25.9253 14.8003 26.0683 14.6947 26.1691C14.5882 26.2699 14.4422 26.316 14.2973 26.2978C13.9747 26.2565 13.0416 26.2383 12.6115 26.6511C12.4224 26.8325 12.3456 27.0936 12.3773 27.4498C12.4003 27.7166 12.2035 27.9518 11.9366 27.9749C11.9213 27.9758 11.9069 27.9768 11.8925 27.9768Z" fill="#EAAA7F"/>
</g>
<defs>
<clipPath id="clip0_137997_5810">
<rect width="48" height="48" rx="24" fill="white"/>
</clipPath>
</defs>
</svg>
