<svg width="48" height="48" viewBox="0 0 48 48" fill="none" xmlns="http://www.w3.org/2000/svg">
<g clip-path="url(#clip0_137997_5768)">
<path d="M48 0H0V48H48V0Z" fill="#797EF3"/>
<path d="M36.9601 21.9264C36.6625 21.1776 36.6337 20.3424 36.6049 19.536C36.5761 18.5568 36.7297 17.52 37.2289 16.7424C37.6129 16.1376 38.2177 15.6864 39.0913 15.552C39.6673 15.4656 40.5313 15.504 40.9249 15.9744C41.3473 16.4736 41.5489 17.3856 41.5777 18.0192C41.6161 18.864 41.3761 19.68 41.1457 20.4768C40.8865 21.3504 40.6465 23.1936 39.5617 23.4144C38.4193 23.664 37.3633 22.9632 36.9601 21.9264Z" fill="#D9A48E"/>
<path d="M33.0529 48H11.6929C11.7697 47.6736 11.8465 47.3472 11.9233 47.0208C13.4497 40.4736 14.0449 34.128 14.1313 27.264C19.5361 29.2608 25.2193 28.4064 30.7969 28.32C32.8705 28.2912 32.1793 30.6432 32.1985 32.8416C32.2273 35.5872 32.3329 38.3232 32.4961 41.0496C32.6401 43.3728 32.8225 45.696 33.0529 48Z" fill="#D9A48E"/>
<path d="M38.8127 13.1712C39.3599 15.8112 39.2063 18.5952 39.3887 21.3888C39.4655 22.608 39.5807 23.8176 39.7439 25.0272C40.2527 28.752 41.2223 32.7456 39.5807 36.1248C38.3711 38.6112 35.8751 40.3008 33.1967 41.0112C31.2575 41.5296 29.2607 41.5488 27.2735 41.376C24.1919 41.1072 20.9567 40.3296 18.1727 38.8032C16.4639 37.872 14.9279 36.6528 13.6991 35.1168C12.0863 33.0816 11.6447 31.296 11.3567 28.8288C10.3871 20.544 5.42388 11.1072 14.5727 5.3952C21.2831 1.2 32.4383 2.0832 37.0751 8.9568C37.9967 10.3008 38.5151 11.712 38.8127 13.1712Z" fill="#E5B69E"/>
<path d="M25.4644 24.4317C26.2184 24.2813 26.6236 23.1267 26.3695 21.8528C26.1154 20.5789 25.2983 19.6681 24.5443 19.8185C23.7904 19.9689 23.3852 21.1235 23.6393 22.3974C23.8933 23.6713 24.7105 24.5821 25.4644 24.4317Z" fill="#1B1464"/>
<path d="M34.2572 21.9923C35.0111 21.8419 35.4163 20.6873 35.1622 19.4134C34.9082 18.1395 34.091 17.2287 33.3371 17.3791C32.5831 17.5294 32.1779 18.684 32.432 19.9579C32.6861 21.2318 33.5032 22.1426 34.2572 21.9923Z" fill="#1B1464"/>
<path d="M22.0397 18.1382C22.4564 17.8128 23.1418 17.4701 23.856 17.329C24.5741 17.1878 25.224 17.2666 25.682 17.641L26.3501 16.823C25.5504 16.1702 24.53 16.1203 23.6525 16.2931C22.7712 16.4669 21.9341 16.8816 21.3908 17.3059L22.0397 18.1382ZM25.682 17.641C25.9076 17.8253 26.2407 17.7917 26.425 17.5661C26.6093 17.3405 26.5757 17.0074 26.3501 16.823L25.682 17.641ZM21.3908 17.305C21.1604 17.4845 21.12 17.8157 21.2996 18.0461C21.4791 18.2765 21.8103 18.3168 22.0407 18.1373L21.3908 17.305Z" fill="#1B1464"/>
<path d="M30.7968 14.3616C31.1097 14.7869 31.1097 14.7869 31.1097 14.7869C31.1097 14.7869 31.1107 14.7859 31.1116 14.7859C31.1136 14.784 31.1174 14.7811 31.1241 14.7773C31.1356 14.7686 31.1548 14.7562 31.1808 14.7389C31.2326 14.7053 31.3104 14.6563 31.4092 14.6016C31.6089 14.4912 31.8844 14.3606 32.1974 14.2723C32.8233 14.0957 33.5232 14.0995 34.1203 14.6669L34.848 13.9018C33.8793 12.9811 32.7369 13.0234 31.9104 13.2566C31.4976 13.3738 31.1452 13.5408 30.8985 13.6781C30.7737 13.7472 30.6739 13.8086 30.6038 13.8547C30.5683 13.8778 30.5404 13.897 30.5203 13.9104C30.5107 13.9171 30.502 13.9229 30.4963 13.9277C30.4934 13.9296 30.4905 13.9315 30.4886 13.9334C30.4876 13.9344 30.4867 13.9344 30.4857 13.9354L30.4848 13.9363C30.4838 13.9363 30.4838 13.9363 30.7968 14.3616ZM34.1193 14.6678C34.3305 14.8685 34.6646 14.8608 34.8662 14.6486C35.0668 14.4374 35.0592 14.1034 34.847 13.9018L34.1193 14.6678ZM30.4838 13.9363C30.2496 14.1091 30.1996 14.4403 30.3724 14.6746C30.5452 14.9088 30.8764 14.9587 31.1107 14.7859L30.4838 13.9363Z" fill="#1B1464"/>
<path d="M25.9066 32.615C27.7335 33.9466 30.1517 34.4093 32.3405 33.8419L32.0755 32.8195C30.1939 33.3082 28.1002 32.9069 26.5287 31.7616L25.9066 32.615ZM32.3405 33.8419C32.6227 33.769 32.7927 33.481 32.7187 33.1987C32.6458 32.9165 32.3578 32.7466 32.0755 32.8205L32.3405 33.8419ZM26.5287 31.7626C26.2935 31.5907 25.9623 31.6426 25.7914 31.8787C25.6205 32.1149 25.6714 32.4451 25.9075 32.616L26.5287 31.7626Z" fill="#1B1464"/>
<path d="M31.2183 20.879C31.1204 20.4048 31.1501 19.9114 31.1895 19.3325L30.1364 19.2614C30.0989 19.8154 30.0519 20.4547 30.1844 21.0941L31.2183 20.879ZM32.7514 23.6045C32.0026 22.8278 31.4324 21.9254 31.2183 20.88L30.1834 21.0922C30.4493 22.3882 31.1472 23.4634 31.9911 24.3389L32.7514 23.6045ZM33.1844 26.9914C33.6682 26.3942 33.8045 25.7568 33.6634 25.1366C33.53 24.5501 33.1604 24.0346 32.7533 23.6074L31.9882 24.335C32.3396 24.7037 32.5613 25.0531 32.6333 25.3709C32.6986 25.655 32.6573 25.9642 32.3636 26.3261L33.1844 26.9914ZM28.9431 27.5981C29.5527 27.8515 30.3341 28.0099 31.0906 27.9629C31.8452 27.9158 32.6468 27.6557 33.1844 26.9923L32.3645 26.327C32.0775 26.6813 31.6061 26.8723 31.0244 26.9088C30.4445 26.9453 29.8244 26.8205 29.3482 26.6227L28.9431 27.5981ZM31.1895 19.3315C31.2096 19.0406 30.9898 18.7891 30.698 18.769C30.4071 18.7488 30.1556 18.9686 30.1354 19.2605L31.1895 19.3315ZM30.7008 20.9856L31.2183 20.88V20.879L30.7008 20.9856ZM32.3712 23.9712L32.7533 23.6074C32.7524 23.6064 32.7514 23.6054 32.7504 23.6045L32.3712 23.9712ZM29.3482 26.6227C29.0794 26.5104 28.7703 26.6381 28.658 26.9078C28.5456 27.1766 28.6733 27.4858 28.9431 27.5981L29.3482 26.6227Z" fill="#1B1464"/>
<path d="M33.1103 33.504C33.1103 33.5232 33.1007 33.5424 33.1007 33.5616C33.0431 33.936 32.8511 34.272 32.6111 34.56C31.7951 35.5392 30.4415 35.9904 29.1839 35.8368C27.9263 35.6832 26.7647 34.9728 25.9295 34.0128C25.5071 33.5232 25.1615 32.9568 25.0655 32.3232C25.0271 32.064 25.0463 31.7664 25.2479 31.6032C25.3247 31.536 25.4207 31.4976 25.5167 31.4688C26.6687 31.0944 27.8975 31.5744 29.0687 31.872C29.7599 32.0448 30.4703 32.16 31.1807 32.2368C32.1215 32.3424 33.2831 32.1408 33.1103 33.504ZM39.3983 21.3888C39.2735 21.7152 39.1967 22.0512 39.1295 22.3872C38.8511 23.8656 38.9855 25.4112 38.5247 26.8608C38.1119 28.1568 37.0271 29.328 35.9999 30.1824C35.7695 30.3744 35.5199 30.5664 35.2319 30.672C34.1663 31.0656 33.1199 30.4704 32.0735 30.4512C31.3631 30.432 30.6527 30.528 29.9423 30.4896C28.4159 30.4032 26.9471 29.6736 25.4111 29.7408C23.9327 29.808 22.7615 30.7872 21.3791 31.2192C20.4671 31.5072 19.4495 31.344 18.6047 30.8928C17.8751 30.5088 17.0975 29.8944 16.7039 29.1552C16.2527 28.3008 16.1567 27.1968 15.8207 26.2848C15.6191 25.728 14.5247 23.4048 14.2655 25.104C14.1023 26.1504 14.0543 27.1776 13.6703 28.1856C13.4495 28.7712 13.1519 29.328 12.9599 29.9232C11.6447 34.0512 14.8703 37.008 18.1631 38.8128C20.9471 40.3296 24.1823 41.1168 27.2639 41.3856C29.2415 41.5584 31.2479 41.5296 33.1871 41.0208C35.8559 40.3104 38.3615 38.6112 39.5711 36.1344C41.2127 32.7552 40.2431 28.7616 39.7343 25.0368C39.5903 23.8176 39.4751 22.608 39.3983 21.3888Z" fill="#1B1464"/>
<path d="M12.9216 20.448C12.2208 19.8048 11.3088 19.44 10.1376 19.5744C8.42883 19.7568 6.95043 21.1488 6.54723 22.8192C5.89443 25.5072 7.96803 28.416 10.3776 29.4432C12.5184 30.3552 14.7648 29.3664 15.0336 26.9664C15.1584 25.9008 14.9088 24.8352 14.6688 23.7984C14.3808 22.5408 13.824 21.264 12.9216 20.448Z" fill="#E5B69E"/>
<path d="M12.3743 24.624C12.3743 24.096 12.3743 24.096 12.3743 24.096C12.3743 24.096 12.3743 24.096 12.3734 24.096H12.3724C12.3715 24.096 12.3705 24.096 12.3695 24.096C12.3666 24.096 12.3638 24.096 12.3599 24.096C12.3523 24.096 12.3417 24.096 12.3292 24.0969C12.3033 24.0979 12.2668 24.0989 12.2226 24.1008C12.1334 24.1056 12.0086 24.1152 11.8617 24.1334C11.5708 24.1709 11.1734 24.2457 10.7826 24.4041C10.3948 24.5606 9.97145 24.816 9.68537 25.2393C9.38777 25.68 9.28313 26.2368 9.43001 26.8982L10.461 26.6688C10.3679 26.2502 10.4476 25.9977 10.5599 25.8297C10.6847 25.6454 10.8978 25.4957 11.1782 25.3824C11.4546 25.2701 11.7542 25.2105 11.9942 25.1808C12.1122 25.1654 12.2111 25.1587 12.2783 25.1549C12.3119 25.1529 12.3378 25.152 12.3551 25.152C12.3638 25.152 12.3695 25.152 12.3724 25.152C12.3743 25.152 12.3753 25.152 12.3753 25.152C12.3743 25.152 12.3743 25.152 12.3743 24.624ZM8.78393 23.0688C8.93081 23.5757 8.93081 23.5757 8.93081 23.5757C8.93081 23.5757 8.93273 23.5757 8.93465 23.5747C8.93849 23.5737 8.94425 23.5718 8.95385 23.5699C8.97209 23.5651 8.99993 23.5584 9.03737 23.5497C9.11225 23.5325 9.22169 23.5104 9.35513 23.4893C9.62585 23.448 9.97913 23.4182 10.3382 23.4537C10.6991 23.4893 11.0313 23.5881 11.2915 23.7763C11.5391 23.9549 11.7571 24.2409 11.8598 24.7315L12.8937 24.5165C12.7411 23.783 12.3839 23.2627 11.9106 22.92C11.4498 22.5869 10.9171 22.4496 10.4428 22.4025C9.96761 22.3555 9.5193 22.3958 9.19578 22.4448C9.03258 22.4697 8.89722 22.4976 8.80122 22.5197C8.75322 22.5312 8.71481 22.5408 8.68697 22.5475C8.67353 22.5513 8.66201 22.5542 8.65433 22.5561C8.65049 22.5571 8.64666 22.5581 8.64474 22.559C8.64378 22.559 8.64281 22.56 8.64185 22.56H8.64089C8.64089 22.56 8.64089 22.56 8.63993 22.56C8.63705 22.5619 8.63705 22.5619 8.78393 23.0688ZM9.43001 26.8982C9.49337 27.1833 9.77562 27.3619 10.0598 27.2995C10.3439 27.2371 10.5234 26.9539 10.461 26.6697L9.43001 26.8982ZM12.3743 24.624V25.152C12.5337 25.152 12.6835 25.08 12.7843 24.9571C12.8841 24.8342 12.9244 24.672 12.8918 24.5165L12.3743 24.624ZM8.63705 22.5619C8.35673 22.6435 8.19545 22.9363 8.27705 23.2157C8.35865 23.496 8.65145 23.6573 8.93081 23.5757L8.63705 22.5619Z" fill="#DB9F7F"/>
<path d="M11.712 11.1264C11.0976 11.1264 11.0976 12.0864 11.712 12.0864C12.336 12.0864 12.336 11.1264 11.712 11.1264Z" fill="#DB9F7F"/>
<path d="M12.5279 9.43681C11.9135 9.43681 11.9135 10.3968 12.5279 10.3968C13.1423 10.3968 13.1423 9.43681 12.5279 9.43681Z" fill="#DB9F7F"/>
<path d="M13.5265 11.0592C12.9121 11.0592 12.9121 12.0192 13.5265 12.0192C14.1409 12.0192 14.1409 11.0592 13.5265 11.0592Z" fill="#DB9F7F"/>
</g>
<defs>
<clipPath id="clip0_137997_5768">
<rect width="48" height="48" rx="24" fill="white"/>
</clipPath>
</defs>
</svg>
