<svg width="48" height="48" viewBox="0 0 48 48" fill="none" xmlns="http://www.w3.org/2000/svg">
<g clip-path="url(#clip0_137997_5785)">
<path d="M48 0H0V48H48V0Z" fill="#797EF3"/>
<path d="M29.7513 48H12.1238C12.551 46.4342 12.8975 45.047 12.9619 44.7562C13.5235 42.1824 13.8787 39.5712 14.0207 36.9514C14.0947 35.593 14.1119 34.2317 14.0716 32.8723C14.0438 31.9306 13.6147 30.4253 14.0419 29.5277C14.8598 27.8064 18.6623 29.8272 20.351 30.047C23.2511 30.4253 26.2003 30.2477 29.11 30.071C28.6675 36.047 28.8844 42.0624 29.7513 48Z" fill="#797EF3"/>
<path d="M42.0143 26.8695C42.286 28.0992 42.8083 29.2915 42.8179 30.552C42.5567 30.6154 42.3139 30.4071 42.1343 30.2074C40.2364 28.0925 39.6335 25.1405 39.2351 22.3267C38.9894 20.5891 38.3587 17.7034 39.1823 16.0579C39.6019 15.2199 41.1206 14.2455 41.9884 15.0519C43.0147 16.0071 42.1871 19.3747 42.0508 20.6007C41.8195 22.68 41.5564 24.7997 42.0143 26.8695Z" fill="#444DF2"/>
<path d="M27.0451 3.21024C26.2358 2.7504 25.3958 2.34432 24.5251 2.00256C20.807 0.545277 16.44 0.397437 12.9187 2.28384C9.82078 3.94368 7.65119 7.01472 6.48287 10.3296C5.31455 13.6445 5.05726 17.209 5.03902 20.7226C5.01598 24.9946 5.33182 29.2637 5.8579 33.5021C6.1939 36.2131 7.03294 43.1827 10.6608 43.3267C15.1142 43.5024 19.584 43.2816 23.999 42.671C27.7593 42.1517 33.9552 45.0144 36.96 42.432C38.7542 40.8893 38.0995 35.3453 38.8694 33.1075C39.8054 30.3888 40.5033 27.5616 40.5869 24.6874C40.6973 20.8982 39.7113 17.0822 37.7789 13.8211C36.7507 12.0864 35.4672 10.5139 34.0982 9.0336C32.0217 6.78912 29.6918 4.7136 27.0451 3.21024Z" fill="#444DF2"/>
<path d="M29.7513 48H12.1238C12.551 46.4342 12.8975 45.047 12.9619 44.7562C13.5235 42.1824 13.8787 39.5712 14.0207 36.9514C14.0947 35.593 14.1119 34.2317 14.0716 32.8723C14.0438 31.9306 13.6147 30.4253 14.0419 29.5277C14.8598 27.8064 18.6623 29.8272 20.351 30.047C23.2511 30.4253 26.2003 30.2477 29.11 30.071C28.6675 36.047 28.8844 42.0624 29.7513 48Z" fill="#E8AE8E"/>
<path d="M14.2782 35.9222C17.2119 39.073 21.2516 41.0707 25.5879 42.1901C29.7159 43.2557 34.5764 43.3815 37.7367 40.5197C40.3921 38.1158 41.1159 34.2682 41.3886 30.696C41.715 26.4163 41.6113 22.1155 41.4241 17.8282C41.3425 15.9639 41.2436 14.087 40.7962 12.2765C40.1194 9.53857 38.4289 5.90017 35.7524 4.68481C32.5191 3.21697 28.6455 2.83009 25.1473 3.22561C22.6158 3.51169 20.0401 3.81505 17.713 4.84897C15.6222 5.77825 12.9121 6.96385 11.7956 9.03841C10.3796 11.6688 9.57416 14.7101 9.23144 17.665C8.71112 22.1462 9.3188 26.7715 11.0612 30.9379C11.859 32.8512 12.9562 34.5034 14.2782 35.9222Z" fill="#F4C19F"/>
<path d="M11.8157 18.4272C11.2023 17.7024 10.345 17.2195 9.17474 17.1926C7.45538 17.1533 5.80898 18.3379 5.1869 19.9421C4.18562 22.5254 5.85986 25.6781 8.11682 27.0106C10.1213 28.1933 12.4743 27.504 13.0589 25.1645C13.3181 24.1267 13.2163 23.0381 13.1117 21.9734C12.9869 20.6909 12.6029 19.3584 11.8157 18.4272Z" fill="#F4C19F"/>
<path d="M8.04757 24.8515C7.77685 24.8515 7.54644 24.6442 7.52244 24.3696C7.44468 23.4749 7.79509 22.9373 8.10229 22.6435C8.66197 22.1088 9.47892 21.9696 10.0712 21.9475C9.98196 21.745 9.8514 21.576 9.67764 21.4378C8.88852 20.8099 7.46964 21.0038 7.45524 21.0058C7.16724 21.0499 6.89749 20.8512 6.85429 20.5632C6.81013 20.2752 7.00885 20.0054 7.29685 19.9622C7.37269 19.9507 9.17557 19.6906 10.3343 20.6112C10.8892 21.0528 11.2021 21.6749 11.2626 22.4592C11.2751 22.6176 11.2146 22.7741 11.0994 22.8835C10.9832 22.993 10.8248 23.0438 10.6664 23.0237C10.3151 22.9786 9.29844 22.9594 8.82996 23.4086C8.62452 23.6064 8.54101 23.8906 8.57461 24.2784C8.59957 24.5693 8.38453 24.8246 8.09461 24.8506C8.07829 24.8506 8.06293 24.8515 8.04757 24.8515Z" fill="#EAAA7F"/>
<path d="M20.4902 15.9994C20.4873 16.0032 20.4854 16.007 20.4825 16.0109C20.1657 16.4746 19.0454 16.4285 18.5616 16.4899C18.1593 16.5408 12.455 17.0458 12.4281 16.7779C12.646 19.0003 12.864 21.2237 13.0819 23.4461C13.3584 26.2704 13.5936 29.304 12.1843 31.7674C12.6998 28.0109 12.024 24.0998 10.2777 20.7341C9.72188 19.6618 9.05084 18.6192 8.81468 17.4346C8.61212 16.415 8.74748 15.359 8.96252 14.3424C9.50012 11.8099 10.5379 9.38497 11.999 7.24801C14.6822 3.32545 19.5513 1.32289 24.1737 0.994567C26.2281 0.848647 28.294 0.869767 30.3446 1.05793C33.2822 1.32769 36.6278 2.28385 38.567 4.65409C39.7084 6.04993 40.439 7.72801 41.1552 9.38305C41.3184 9.76033 43.5897 16.7098 43.0147 16.584C41.8454 16.3296 40.6771 16.0752 39.5078 15.8208C38.2531 15.5482 36.9974 15.2746 35.7244 15.1066C33.1238 14.7638 30.4944 14.8694 27.8889 15.0979C27.2064 15.1574 22.9507 16.1299 22.6108 15.1498C22.0483 13.5274 21.4848 11.905 20.9222 10.2826C20.83 10.0176 20.4432 9.73537 20.3539 10.0013C20.3558 11.1158 21.0336 15.1594 20.4902 15.9994Z" fill="#444DF2"/>
<path d="M30.3676 30.1008C30.0767 30.1008 29.8406 29.8656 29.8396 29.5747C29.8386 29.2829 30.0738 29.0458 30.3647 29.0448C30.3993 29.0448 33.7727 29.0026 33.9647 27.1325C34.0406 26.3894 33.8178 26.1312 33.4137 25.6637C32.7494 24.8957 31.8402 23.8435 31.9007 20.4374C31.9055 20.1494 32.1407 19.919 32.4287 19.919C32.4316 19.919 32.4354 19.919 32.4383 19.919C32.7302 19.9238 32.9625 20.1648 32.9567 20.4566C32.903 23.4595 33.6287 24.2986 34.2124 24.9734C34.6674 25.4995 35.1378 26.0448 35.015 27.241C34.726 30.0518 30.5471 30.1008 30.3695 30.1018C30.3695 30.1008 30.3686 30.1008 30.3676 30.1008Z" fill="#1B1464"/>
<path d="M26.1274 25.0009C26.8972 24.9504 27.4524 23.8599 27.3674 22.5652C27.2824 21.2705 26.5895 20.262 25.8197 20.3125C25.0498 20.363 24.4947 21.4535 24.5796 22.7482C24.6646 24.0428 25.3576 25.0514 26.1274 25.0009Z" fill="#1B1464"/>
<path d="M36.7936 24.7013C37.5635 24.6508 38.1186 23.5603 38.0336 22.2656C37.9487 20.9709 37.2557 19.9624 36.4859 20.0129C35.7161 20.0634 35.1609 21.1539 35.2459 22.4486C35.3309 23.7432 36.0238 24.7518 36.7936 24.7013Z" fill="#1B1464"/>
<path d="M39.4215 19.777C39.3131 19.777 39.2046 19.7443 39.1105 19.6752C36.8055 17.9904 34.7329 18.5146 34.6455 18.5376C34.3643 18.6125 34.0753 18.4464 33.9995 18.1651C33.9236 17.8848 34.0878 17.5958 34.3671 17.5181C34.4737 17.4893 36.9995 16.824 39.7335 18.8218C39.9687 18.9936 40.0206 19.3238 39.8487 19.56C39.7451 19.7021 39.5847 19.777 39.4215 19.777Z" fill="#1B1464"/>
<path d="M20.6804 20.3501C20.5978 20.3501 20.5134 20.3309 20.4346 20.2886C20.1764 20.1523 20.0775 19.8336 20.2138 19.5754C20.2666 19.4755 21.5598 17.1437 27.0385 17.1437C27.0865 17.1437 27.1345 17.1437 27.1834 17.1446C27.4753 17.1466 27.7095 17.3846 27.7076 17.6765C27.7057 17.9664 27.4695 18.2006 27.1796 18.2006C27.1786 18.2006 27.1767 18.2006 27.1758 18.2006C22.2913 18.1651 21.1575 20.0486 21.1479 20.0678C21.0538 20.2474 20.8705 20.3501 20.6804 20.3501Z" fill="#1B1464"/>
<path d="M29.4894 34.5802C25.3105 34.5802 22.5304 31.1962 22.4056 31.0426C22.2222 30.816 22.2577 30.4829 22.4853 30.3005C22.7118 30.1171 23.044 30.1526 23.2274 30.3802C23.2706 30.433 26.2033 33.9744 30.3045 33.4752C30.5944 33.4406 30.8574 33.6461 30.892 33.936C30.9275 34.225 30.7211 34.489 30.4312 34.5235C30.1105 34.5619 29.7957 34.5802 29.4894 34.5802Z" fill="#1B1464"/>
<path d="M28.8778 43.296C22.7232 43.296 16.439 38.5891 16.175 38.3885C15.9427 38.2128 15.8966 37.8816 16.0733 37.6493C16.249 37.417 16.5802 37.3709 16.8134 37.5466C16.8758 37.5936 23.0822 42.239 28.8787 42.239C29.1706 42.239 29.4067 42.4752 29.4067 42.767C29.4067 43.0589 29.1696 43.296 28.8778 43.296Z" fill="#1B1464"/>
</g>
<defs>
<clipPath id="clip0_137997_5785">
<rect width="48" height="48" rx="24" fill="white"/>
</clipPath>
</defs>
</svg>
